<svg xmlns="http://www.w3.org/2000/svg" width="800" height="600" viewBox="0 0 800 600" role="img" aria-label="Immagine placeholder">
  <rect width="800" height="600" fill="#fbf1d8"/>
  <rect x="330.0" y="210.0" width="140" height="140" rx="70" fill="#f8e6a4"/>
  <svg x="348.0" y="228.0" width="104" height="104" viewBox="0 -960 960 960"><path d="M240-120q-33 0-56.5-23.5T160-200v-560q0-33 23.5-56.5T240-840h280v80H240v560h480v-280h80v280q0 33-23.5 56.5T720-120H240Zm120-160v-80h240v80H360Zm0-120v-80h240v80H360Zm0-120v-80h240v80H360Zm360-40v-80h-80v-80h80v-80h80v80h80v80h-80v80h-80Z" fill="#995565"/></svg>
  <text x="400.0" y="392.0" font-family="Poppins, sans-serif" font-size="26" font-weight="600" fill="#995565" text-anchor="middle" opacity="0.85">Placeholder</text>
</svg>